# xmcd
#
# Track frame offsets:
#	150
#	6075
#	16725
#	29081
#	44843
#	54267
#	68949
#	82472
#	97110
#	107349
#
# Disc length: 1679 seconds
#
# Revision: 1
# Processed by: cddbd v1.5.2PL0 Copyright (c) Steve Scherf et al.
# Submitted via: audiograbber 1.83.01
#
DISCID=84068d0a
DTITLE=Johnny Falstaff - Honky Tonkin' Daddy
DYEAR=2008
DGENRE=Honky Tonk
TTITLE0=One Hand Tied
TTITLE1=Closin' Time
TTITLE2=Turn Down The Lights
TTITLE3=Lora Lie
TTITLE4=Honky Tonkin' Daddy
TTITLE5=Round'n'Round
TTITLE6=Wanting You
TTITLE7=Rain
TTITLE8=Here
TTITLE9=Down Down Down
EXTD=
EXTT0=
EXTT1=
EXTT2=
EXTT3=
EXTT4=
EXTT5=
EXTT6=
EXTT7=
EXTT8=
EXTT9=
PLAYORDER=
